<svg width="34" height="30" viewBox="0 0 34 30" fill="none" xmlns="http://www.w3.org/2000/svg">
<g clip-path="url(#clip0)">
<path d="M33.9777 9.39467C34.033 11.7647 33.1598 13.695 31.7892 15.4323C31.2254 16.1508 30.9491 16.1186 30.4296 15.3894C29.1143 13.5341 26.9478 12.8263 24.6487 13.9202C24.1292 14.1668 23.676 14.4778 23.2671 14.8639C21.3327 16.687 19.3984 18.5208 17.4641 20.3438C16.9446 20.8264 16.8009 20.8157 16.2703 20.376C15.6624 19.8613 15.1539 19.2178 14.3691 18.9497C12.1143 18.1883 10.0362 18.7781 8.63247 20.7835C8.32298 21.2232 8.06875 21.2554 7.71505 20.9015C6.02389 19.2393 4.33273 17.5771 2.64157 15.9148C0.817777 14.1025 0.0108855 11.9148 -0.000167849 9.41612C-0.0112212 7.2606 0.707244 5.29812 2.0668 3.66807C4.26641 1.01926 7.2287 -0.128208 10.7547 0.150615C13.0096 0.332922 14.8665 1.31953 16.4914 2.79943C16.834 3.11043 17.1877 3.12115 17.5525 2.75654C18.6357 1.65197 19.9621 0.954912 21.4322 0.483058C23.1565 -0.0638644 24.9582 -0.171104 26.6604 0.30075C29.6006 1.11577 31.9439 2.77799 33.1819 5.63056C33.7014 6.86381 34.0661 8.15069 33.9777 9.39467Z" fill="#FE6500"/>
<path d="M28.5506 17.8768C28.6058 18.413 28.3074 18.8527 27.9205 19.2173C26.0525 21.0189 24.1845 22.7991 22.3165 24.59C20.6696 26.1664 19.0226 27.7321 17.3867 29.3193C16.9446 29.7482 16.8009 29.7697 16.3477 29.3407C14.7008 27.7643 13.0649 26.1772 11.429 24.5793C11.02 24.1825 10.6884 23.7428 10.6884 23.1315C10.6995 22.3594 10.9979 21.7911 11.7385 21.4586C12.4459 21.1476 13.1201 21.2227 13.706 21.6838C14.6234 22.3916 15.364 23.3031 16.2261 24.0753C16.8451 24.6329 16.8672 24.6436 17.4641 24.0753C20.0727 21.598 22.6813 19.1101 25.2788 16.6328C25.8536 16.0752 26.7157 15.8929 27.4121 16.1717C28.1305 16.4505 28.5506 17.0725 28.5506 17.8768Z" fill="#009B1E"/>
</g>
<defs>
<clipPath id="clip0">
<rect width="34" height="29.641" fill="white"/>
</clipPath>
</defs>
</svg>
