<svg width="360" height="110" viewBox="0 0 360 110" fill="none" xmlns="http://www.w3.org/2000/svg">
<g filter="url(#filter0_d)">
<rect x="15" y="28" width="330" height="62" rx="4" fill="#37BB7F"/>
<path d="M47.6175 67.8664C32.8309 84.6523 21.5235 71.3635 15 64.3694V32C15 29.7909 16.7909 28 19 28H69C67.9128 34.2947 60.302 35.6935 54.5034 43.0373C48.4284 50.731 54.5034 60.0495 47.6175 67.8664Z" fill="#16B06A"/>
<path d="M319.778 64.5366C300.598 62.7805 293.934 80.7805 293 90H345V36C344.585 46.2439 338.959 66.2927 319.778 64.5366Z" fill="#16B06A"/>
<circle cx="319.5" cy="60.5" r="2.5" fill="#16B06A"/>
<ellipse cx="72.5" cy="37" rx="3.5" ry="3" fill="#16B06A"/>
<circle cx="79.5" cy="33.5" r="1.5" fill="#16B06A"/>
<circle cx="331" cy="57" r="2" fill="#16B06A"/>
</g>
<g clip-path="url(#clip0)">
<path d="M49.064 70.3426H45.7396C45.5606 70.3426 45.4071 70.1887 45.4071 70.009V69.3417C45.4071 69.162 45.5606 69.0081 45.7396 69.0081H49.064C49.243 69.0081 49.3965 69.162 49.3965 69.3417V70.009C49.3965 70.1887 49.243 70.3426 49.064 70.3426Z" fill="#D2D6D7"/>
<path d="M49.3963 69.3417H45.3813C45.1768 69.3417 44.9977 69.1621 44.9977 68.9567V68.3664C44.9977 68.1611 45.1768 67.9815 45.3813 67.9815H49.4218C49.6264 67.9815 49.8054 68.1611 49.8054 68.3664V68.9567C49.7798 69.1877 49.6264 69.3417 49.3963 69.3417Z" fill="#FC8F00"/>
<path d="M50.7262 81.6867L46.7368 83.5603L43.2845 85.4852C43.2845 85.4852 39.8322 89.6429 38.1188 89.6429H25L27.3015 86.3064L32.2627 77.2466C32.2627 77.2466 32.902 68.4691 34.0016 68.4691C35.1012 68.4691 36.8657 67.7248 36.8657 67.7248L42.5685 65.1583C42.5685 65.1583 45.6372 64.4653 44.9467 66.0566C44.8956 66.1336 44.8444 66.2362 44.7933 66.3389L47.6574 66.6726C47.6574 66.6726 48.1177 66.9292 48.041 67.3655C47.9899 67.6735 47.683 68.1098 46.7624 68.5974L44.154 69.1877L41.4177 70.7533L39.5765 74.2695C39.5765 74.2695 37.8631 79.8901 40.7272 81.5584C40.8039 81.6097 40.8551 81.6354 40.9318 81.661C40.9318 81.661 41.9547 82.3797 45.4582 80.8141C45.8673 80.6344 46.3021 80.4291 46.788 80.1725C46.8135 80.1981 51.2376 79.2228 50.7262 81.6867Z" fill="#67CFF0"/>
<path d="M32.2627 77.2723C32.2627 76.836 31.8023 72.5755 31.8023 72.5755L32.9275 71.4463L32.2627 77.2723Z" fill="#1BBDE9"/>
<path d="M36.6356 67.8531L35.4337 70.1373L33.5157 74.2437C33.5157 74.2437 33.7203 74.6031 34.0528 74.0128L36.9169 68.2637L38.0165 67.2371L36.6356 67.8531Z" fill="#00A3D7"/>
<path d="M44.9467 66.0822C44.8956 66.1592 44.8444 66.2619 44.7933 66.3645C42.8753 66.5699 40.9062 67.6478 40.9062 67.6478C39.7555 67.9814 38.6814 68.7771 38.6814 68.7771L35.2035 74.3721C34.7688 73.9358 35.6638 72.9092 35.6638 72.9092L38.7326 68.1868L43.3868 66.2619L44.9467 66.0822Z" fill="#00A3D7"/>
<path d="M50.7262 81.6867L46.7368 83.5602L43.2845 85.4851C43.2845 85.4851 39.8322 89.6429 38.1188 89.6429H33.5157C33.6947 89.4632 34.4364 89.1039 34.5898 88.9756C34.9478 88.6933 35.3058 88.3853 35.6894 88.1286C36.8658 87.3073 38.2723 86.871 39.6788 86.4861C40.1391 86.3577 40.5994 86.2551 41.0341 86.0754C41.699 85.8188 42.3127 85.4851 42.9265 85.1515C44.8189 84.0992 46.7368 83.0469 48.6292 81.9946C48.8082 81.892 48.9617 81.7893 49.0639 81.6353C49.1918 81.353 49.0128 81.0194 48.7571 80.8397C48.5013 80.6857 48.1689 80.6857 47.862 80.6857C47.0693 80.6857 46.2765 80.7371 45.5093 80.814C45.9185 80.6344 46.3532 80.4291 46.8391 80.1724C46.8135 80.1981 51.2376 79.2228 50.7262 81.6867Z" fill="#2EBBE8"/>
<path d="M49.6777 71.6772V79.3511C49.6777 79.6848 49.422 79.9414 49.0895 79.9414H45.6884C45.3559 79.9414 45.1002 79.6848 45.1002 79.3511V71.6772C45.1002 71.3436 45.3559 71.0869 45.6884 71.0869C45.8929 71.0869 46.0464 70.9329 46.0464 70.7276V70.2143H48.7315V70.7276C48.7315 70.9329 48.885 71.0869 49.0895 71.0869C49.422 71.0869 49.6777 71.3436 49.6777 71.6772Z" fill="#EBF6FB"/>
<path d="M48.041 67.3655C47.9898 67.6735 47.683 68.1098 46.7623 68.5974L44.1539 69.1877L41.4176 70.7533L39.5764 74.2694C39.5764 74.2694 37.863 79.8901 40.7272 81.5583C40.0879 81.6353 39.3207 81.507 38.8348 81.199C37.8119 80.6087 37.505 79.2485 37.684 78.0935C37.863 76.9386 38.4512 75.8863 38.8348 74.7571C39.3974 73.1401 39.6275 71.2923 40.9062 70.1373C41.3409 69.7267 41.9035 69.47 42.4405 69.1877C42.952 68.931 43.4635 68.6744 44.0261 68.5974C44.3585 68.5461 44.6909 68.5717 45.0234 68.5461C45.5093 68.4947 45.9952 68.3407 46.4555 68.1354C46.9925 67.9301 47.5295 67.6735 48.041 67.3655Z" fill="#2EBBE8"/>
<path d="M73 89.6429H59.8812L55.1758 73.2941C55.5594 72.9348 56.1987 72.5242 56.9915 72.1135C59.3953 70.8816 63.0011 69.6753 63.0011 69.6753L73 89.6429Z" fill="#E8AB92"/>
<path d="M43.0032 51.4274C43.0032 51.4274 40.3181 53.0443 41.5456 54.2762C41.5456 54.2762 43.3612 54.6099 44.8445 52.685C44.8445 52.685 47.4529 52.608 47.8365 52.2487L47.2227 50.9141L44.333 50.2468L43.0032 51.4274Z" fill="#1BBDE9"/>
<path d="M40.139 50.3494C40.139 50.3494 38.3233 51.838 46.4554 51.2991L41.3409 50.3494H40.139Z" fill="#1BBDE9"/>
<path d="M47.6062 52.5567C47.6062 52.5567 47.683 53.4806 48.6547 53.7116C48.6547 53.7116 48.2967 57.1764 48.9872 57.3561L51.0586 55.7905L49.7544 53.8143L47.6062 52.5567Z" fill="#00A3D7"/>
<path d="M42.7475 40.1347H40.7528V50.8114H42.7475V40.1347Z" fill="#EBF6FB"/>
<path d="M42.5684 40.3143H40.9573V45.1394H42.5684V40.3143Z" fill="white"/>
<path d="M44.333 50.3494H39.2952V50.8114H44.333V50.3494Z" fill="#DBE4E5"/>
<path d="M63.2824 69.008L54.5621 72.8065C54.5621 72.7808 54.5621 72.7552 54.5621 72.7295C54.3831 69.9063 53.0277 68.4691 53.0277 68.4691C50.9563 67.4168 45.8162 61.9758 45.8162 61.9758C44.8444 60.7182 41.52 59.0756 41.52 59.0756L39.1673 58.7933C38.6303 58.3826 38.3745 58.0233 38.2978 57.7154C38.0421 56.6117 40.3181 56.2524 40.3181 56.2524C41.8013 55.5595 45.9696 57.7667 45.9696 57.7667C46.7624 58.203 48.6803 57.972 48.6803 57.972C48.6803 57.2277 50.3937 55.9701 50.3937 55.9701C49.3197 55.6878 49.0384 53.3779 49.0384 53.3779C47.2994 52.8133 46.4044 51.299 46.4044 51.299C44.5887 51.299 43.1822 50.8371 43.1822 50.8371C41.3665 50.8371 39.602 50.1954 39.602 50.1954C37.6841 49.1688 39.602 48.2962 39.602 48.2962L47.1716 47.7829L55.1758 51.2734C56.3777 51.838 56.7102 52.916 56.7102 52.916C58.5258 61.6165 61.2366 66.2105 61.2366 66.2105C62.6175 68.9567 63.2824 69.008 63.2824 69.008Z" fill="#67CFF0"/>
<path d="M56.2 53.9857C56.4743 52.6143 54.2571 51.8143 53.1143 51.5857C54.76 52.6829 55.1714 53.6429 55.1714 53.9857L59.2857 68.7286L61.3429 67.7C59.4229 66.6029 57.1143 58.1 56.2 53.9857Z" fill="#96E3FB"/>
<path d="M63.1288 69.932L63.001 69.6753C63.001 69.6753 60.0601 70.7789 57.0681 72.2932C56.4288 72.6268 55.7895 72.9605 55.1757 73.3198L55.3036 73.7561C55.3036 73.7561 53.4623 73.9358 54.5875 72.8065C54.5875 72.8065 60.5971 68.7771 63.5124 69.0337C63.4869 69.0337 63.9472 69.7523 63.1288 69.932Z" fill="#A3E2F5"/>
<path d="M47.6063 52.5567L44.3585 53.5319C44.3585 53.5319 41.8524 55.8161 42.6196 56.5604C42.6196 56.5604 43.6936 57.5614 45.3047 55.3028C45.3047 55.3028 46.4043 55.2772 47.1204 54.9692C47.1204 54.9692 47.6063 55.7391 48.6803 56.1241V53.7116C48.6547 53.7116 47.6063 53.4036 47.6063 52.5567Z" fill="#1BBDE9"/>
<path d="M42.3128 39.7754H41.2132V40.109H42.3128V39.7754Z" fill="#EBF6FB"/>
<path d="M42.5684 39.416H40.9573V39.7754H42.5684V39.416Z" fill="#0088C8"/>
<path d="M42.236 39.4161H41.2386L41.4176 37.5168H42.0569L42.236 39.4161Z" fill="#0088C8"/>
<path d="M41.8267 31.3572H41.6733V37.5168H41.8267V31.3572Z" fill="white"/>
<path d="M42.236 50.8114H41.2386V56.2781H42.236V50.8114Z" fill="#D6DFE1"/>
<path d="M55.6106 71.8826C55.2526 72.1392 54.8945 72.4215 54.5877 72.7295C54.4087 69.9063 53.0533 68.4691 53.0533 68.4691C50.9819 67.4168 45.8418 61.9758 45.8418 61.9758C44.87 60.7182 41.5456 59.0756 41.5456 59.0756L39.1929 58.7933C38.6559 58.3826 38.4001 58.0233 38.3234 57.7153C38.8604 57.7153 39.6021 57.972 40.0624 58.0747C43.4635 58.7163 46.6857 60.3332 49.243 62.6687C50.496 63.8237 51.5957 65.1326 52.6953 66.4415C53.0533 66.8778 53.4369 67.3141 53.7182 67.8274C53.9484 68.1868 54.1274 68.5974 54.2808 68.9824C54.7155 69.932 55.1758 70.9073 55.6106 71.8826Z" fill="#2EBBE8"/>
<path d="M64.3564 89.6429H59.8812L55.3037 73.7305L55.1758 73.2941C55.7896 72.9348 56.4289 72.6012 57.0682 72.2675L57.0938 72.3445C57.0938 72.3702 57.6052 86.1524 64.3564 89.6429Z" fill="#DE9681"/>
<path d="M42.7475 40.6223H41.5711V40.7763H42.7475V40.6223Z" fill="#0088C8"/>
<path d="M42.7475 41.5976H41.5711V41.7516H42.7475V41.5976Z" fill="#0088C8"/>
<path d="M42.7475 42.5985H41.5711V42.7525H42.7475V42.5985Z" fill="#0088C8"/>
<path d="M42.7475 43.5738H41.5711V43.7278H42.7475V43.5738Z" fill="#0088C8"/>
<path d="M45.3815 79.0945V71.7542C45.3815 71.7542 45.8162 71.3692 46.1486 71.3692C46.1486 71.3692 45.7651 71.5232 45.7651 72.1392V79.0945H45.3815Z" fill="white"/>
<path d="M49.6777 74.1154H45.1002V77.2723H49.6777V74.1154Z" fill="white"/>
<path d="M45.8418 76.0146C45.8673 76.0146 45.8929 76.0146 45.9185 76.0146C45.944 76.0146 45.9696 76.0146 45.9952 76.0403V75.8093C45.9696 75.8093 45.944 75.7837 45.9185 75.7837C45.8929 75.7837 45.8673 75.7837 45.8418 75.7837C45.6883 75.7837 45.5605 75.835 45.4582 75.9633C45.3559 76.0916 45.3047 76.2456 45.3047 76.451C45.3047 76.6306 45.3559 76.7846 45.4582 76.9129C45.5605 77.0413 45.6883 77.0926 45.8418 77.0926C45.8673 77.0926 45.8929 77.0926 45.9185 77.0926C45.944 77.0926 45.9696 77.0926 45.9952 77.0669V76.8103C45.9696 76.8103 45.944 76.8359 45.9185 76.8359C45.8929 76.8359 45.8673 76.8359 45.8418 76.8359C45.765 76.8359 45.6883 76.8103 45.6372 76.7333C45.586 76.6563 45.5605 76.5536 45.5605 76.451C45.5605 76.3226 45.586 76.22 45.6372 76.1686C45.6883 76.066 45.765 76.0146 45.8418 76.0146Z" fill="#FC8F00"/>
<path d="M46.8647 75.9633C46.788 75.835 46.6857 75.7837 46.5323 75.7837C46.4044 75.7837 46.2766 75.835 46.1998 75.9633C46.1231 76.066 46.072 76.2456 46.072 76.4253C46.072 76.6306 46.0975 76.7846 46.1743 76.9129C46.251 77.0156 46.3533 77.0926 46.5067 77.0926C46.6346 77.0926 46.7369 77.0413 46.8392 76.9129C46.9159 76.8103 46.967 76.6563 46.967 76.451C46.967 76.2456 46.9414 76.066 46.8647 75.9633ZM46.6857 76.7333C46.6601 76.8103 46.609 76.8359 46.5323 76.8359C46.4556 76.8359 46.43 76.8103 46.3788 76.7333C46.3533 76.6563 46.3277 76.5536 46.3277 76.4253C46.3277 76.297 46.3533 76.1943 46.3788 76.1173C46.4044 76.0403 46.4556 76.0146 46.5323 76.0146C46.609 76.0146 46.6346 76.0403 46.6857 76.1173C46.7113 76.1943 46.7369 76.297 46.7369 76.4253C46.7369 76.5536 46.7113 76.6563 46.6857 76.7333Z" fill="#FC8F00"/>
<path d="M47.6573 75.8093L47.5039 76.3996C47.4783 76.4509 47.4783 76.5279 47.4783 76.5793C47.4783 76.6306 47.4528 76.7076 47.4528 76.7589C47.4528 76.6819 47.4272 76.6306 47.4272 76.5536C47.4272 76.5023 47.4016 76.4253 47.4016 76.3739L47.2482 75.8093H46.9925L47.3505 77.0669H47.5551L47.9131 75.8093H47.6573Z" fill="#FC8F00"/>
<path d="M47.9898 75.8093V77.0669H48.2455V75.8093H47.9898Z" fill="#FC8F00"/>
<path d="M49.1151 75.9633C49.0128 75.8606 48.8849 75.8093 48.6804 75.8093H48.4758V77.0669H48.6548C48.7571 77.0669 48.8338 77.0669 48.8849 77.0412C48.9361 77.0156 48.9872 77.0156 49.0384 76.9642C49.1151 76.9129 49.1662 76.8359 49.1918 76.7589C49.2174 76.6819 49.243 76.5536 49.243 76.4253C49.2685 76.22 49.2174 76.066 49.1151 75.9633ZM48.9361 76.7333C48.8849 76.8103 48.8338 76.8359 48.7315 76.8359H48.7059V76.0403H48.7315C48.8338 76.0403 48.8849 76.066 48.9361 76.143C48.9872 76.22 49.0128 76.3226 49.0128 76.4509C49.0128 76.5536 48.9872 76.6563 48.9361 76.7333Z" fill="#FC8F00"/>
<path d="M49.4731 75.8093V76.0146H49.6009V77.0669H49.6777V75.8093H49.4731Z" fill="#FC8F00"/>
<path d="M49.6777 74.1154H45.1002V74.7571H49.6777V74.1154Z" fill="#FC8F00"/>
</g>
<defs>
<filter id="filter0_d" x="-9" y="0" width="378" height="110" filterUnits="userSpaceOnUse" color-interpolation-filters="sRGB">
<feFlood flood-opacity="0" result="BackgroundImageFix"/>
<feColorMatrix in="SourceAlpha" type="matrix" values="0 0 0 0 0 0 0 0 0 0 0 0 0 0 0 0 0 0 127 0"/>
<feOffset dy="-4"/>
<feGaussianBlur stdDeviation="12"/>
<feColorMatrix type="matrix" values="0 0 0 0 0 0 0 0 0 0 0 0 0 0 0 0 0 0 0.11 0"/>
<feBlend mode="normal" in2="BackgroundImageFix" result="effect1_dropShadow"/>
<feBlend mode="normal" in="SourceGraphic" in2="effect1_dropShadow" result="shape"/>
</filter>
<clipPath id="clip0">
<rect width="48" height="58.2857" fill="white" transform="translate(25 31.3572)"/>
</clipPath>
</defs>
</svg>
