<svg width="63" height="14" viewBox="0 0 63 14" fill="none" xmlns="http://www.w3.org/2000/svg">
<path d="M8.37591 1.67285V12.0364L8.97628 12.1184C9.09559 12.1184 9.17641 12.0364 9.17641 11.935V1.75479C9.17641 1.69236 9.13792 1.61432 9.03786 1.61432C8.75692 1.62993 8.57603 1.65334 8.37591 1.67285ZM8.37591 0.861246L9.61899 0.740286C9.8807 0.720776 10 0.923678 10 1.06415V12.6881C10 13.0744 9.79988 13.2968 9.38038 13.2382L8.399 13.0353C8.399 13.5621 8.43748 14.0732 7.83711 13.9913C7.63698 13.9718 0.540235 13.0783 0.382444 13.0548C0.163076 13.0158 0.00143664 12.7895 0.00143664 12.6061V1.69236C-0.00241192 1.3685 -0.0216547 1.04074 0.34011 0.939285C0.478658 0.919776 7.65623 0.00281739 7.75629 0.00281739C7.99875 -0.0166924 8.15654 0.0652486 8.2566 0.244738C8.35666 0.393012 8.37591 0.595914 8.37591 0.861246Z" fill="#C82128"/>
<path d="M59.2217 9.19009V10.9465H57.7208V3H59.2217V7.48728L61.0586 4.99197H62.7536L60.7785 7.48728L63 10.9465H61.1631L59.7518 8.55109L59.2217 9.19009ZM13.5531 8.73672V10.9465H12V3H13.5531V6.69478L15.9165 3H17.6974L15.2818 6.32352L17.9998 10.9465H16.2002L14.3633 7.53726L13.5531 8.73672ZM55.3761 7.38733C55.3761 6.55913 54.9878 6.13788 54.3158 6.13788C53.5915 6.13788 53.2406 6.55913 53.2406 7.38733V8.50112C53.2406 9.32932 53.5952 9.75056 54.3158 9.75056C54.9878 9.75056 55.3761 9.32932 55.3761 8.50112V7.38733ZM51.7919 8.50112V7.38733C51.7919 6.50915 51.9861 5.92013 52.4789 5.49888C52.9008 5.07764 53.5392 4.89201 54.3158 4.89201C55.0924 4.89201 55.7084 5.07764 56.1527 5.49888C56.6306 5.92013 56.8247 6.51272 56.8247 7.38733V8.50112C56.8247 9.37929 56.6306 9.98617 56.1527 10.3896C55.7122 10.8108 55.0924 10.9964 54.3158 10.9964C53.5392 10.9964 52.9045 10.8108 52.4789 10.3896C51.9861 9.98617 51.7919 9.37573 51.7919 8.50112ZM49.5145 7.38733C49.5145 6.55913 49.1785 6.13788 48.5102 6.13788C47.7859 6.13788 47.4349 6.55913 47.4349 7.38733V8.50112C47.4349 9.32932 47.7896 9.75056 48.5102 9.75056C49.1822 9.75056 49.5145 9.32932 49.5145 8.50112V7.38733ZM45.934 8.50112V7.38733C45.934 6.50915 46.1805 5.92013 46.621 5.49888C47.0989 5.07764 47.7336 4.89201 48.5102 4.89201C49.2867 4.89201 49.9028 5.07764 50.3471 5.49888C50.769 5.92013 51.0191 6.51272 51.0191 7.38733V8.50112C51.0191 9.37929 50.7727 9.98617 50.3471 10.3896C49.9065 10.8108 49.2867 10.9964 48.5102 10.9964C47.7336 10.9964 47.0989 10.8108 46.621 10.3896C46.1805 9.98617 45.934 9.37573 45.934 8.50112ZM43.6417 7.38733C43.6417 6.98394 43.552 6.6448 43.3579 6.42704C43.216 6.24141 42.9696 6.14145 42.6336 6.14145C42.3349 6.14145 42.0512 6.24141 41.9093 6.46274C41.7152 6.69835 41.6106 6.98751 41.6106 7.3909V8.50469C41.6106 8.92593 41.7152 9.19723 41.9093 9.43284C42.1034 9.66845 42.3312 9.75413 42.6859 9.75413C43.3019 9.75413 43.6379 9.33289 43.6379 8.50469V7.38733H43.6417ZM41.577 10.9465H40.1135V3H41.6143V5.54886C41.969 5.12762 42.4432 4.89201 43.0256 4.89201C43.6417 4.89201 44.1905 5.07764 44.5788 5.49888C44.9484 5.92013 45.1425 6.51272 45.1425 7.3552V8.55466C45.1425 9.38286 44.9484 9.98974 44.5788 10.3931C44.1905 10.8144 43.6454 11 43.0779 11C42.4432 11 41.9653 10.8144 41.577 10.3931V10.9465ZM37.6232 8.81883V8.36189H36.5106C35.8946 8.36189 35.5922 8.6332 35.5922 9.10442C35.5922 9.61133 35.8908 9.84694 36.5106 9.84694C36.8989 9.84694 37.1976 9.79697 37.3395 9.61133C37.5336 9.42927 37.6232 9.14012 37.6232 8.81883ZM39.0868 7.01606V10.9465H37.6232V10.4395C37.4291 10.6252 37.2536 10.7608 37.0072 10.8608C36.813 10.9465 36.5143 10.9964 36.1783 10.9964C35.5063 10.9964 35.0135 10.8608 34.6775 10.5395C34.3414 10.1682 34.1473 9.74699 34.1473 9.14012C34.1473 8.60107 34.3414 8.17983 34.7297 7.85855C35.0657 7.57296 35.5959 7.38733 36.2829 7.38733H37.6232V6.93039C37.6232 6.28782 37.2872 5.95225 36.6189 5.95225C36.3202 5.95225 36.141 6.05221 35.9469 6.18786C35.7863 6.32352 35.7004 6.50915 35.7004 6.69478V6.74476H34.2892V6.69478C34.2892 6.13789 34.5356 5.68095 34.9239 5.36323C35.3644 5.04195 35.9469 4.89201 36.6189 4.89201C37.4291 4.89201 38.0115 5.07764 38.4558 5.39893C38.8926 5.76662 39.0868 6.29139 39.0868 7.01606ZM32.4187 9.10799C32.4187 9.51138 32.6128 9.75056 33.0534 9.75056H33.4939V10.95H32.807C32.2245 10.95 31.8026 10.7644 31.448 10.4931C31.1119 10.1718 30.9178 9.75056 30.9178 9.19366V5.95225H30.0516V4.93842H30.9178V3.7925L32.4187 3.26774V4.93842H33.6358V5.95225H32.4187V9.10799ZM28.0056 8.81883V8.36189H26.9304C26.3143 8.36189 25.9783 8.6332 25.9783 9.10442C25.9783 9.61133 26.2621 9.84694 26.8968 9.84694C27.2851 9.84694 27.5688 9.79697 27.763 9.61133C27.9011 9.42927 28.0056 9.14012 28.0056 8.81883ZM29.5065 7.01606V10.9465H28.043V10.4395C27.8152 10.6252 27.6211 10.7608 27.3709 10.8608C27.1768 10.9465 26.893 10.9964 26.5421 10.9964C25.9261 10.9964 25.4295 10.8608 25.0599 10.5395C24.7052 10.1682 24.5148 9.74699 24.5148 9.14012C24.5148 8.60107 24.7089 8.17983 25.0972 7.85855C25.4855 7.57296 26.0157 7.38733 26.7026 7.38733H28.0094V6.93039C28.0094 6.28782 27.6734 5.95225 26.9864 5.95225C26.74 5.95225 26.5085 6.05221 26.3704 6.18786C26.1762 6.32352 26.0717 6.50915 26.0717 6.69478V6.74476H24.7127V6.69478C24.7127 6.13789 24.9068 5.68095 25.3474 5.36323C25.7357 5.04195 26.3181 4.89201 27.0424 4.89201C27.819 4.89201 28.435 5.07764 28.8233 5.39893C29.2601 5.76662 29.5065 6.29139 29.5065 7.01606ZM20.1204 3V5.49531C20.3146 5.25971 20.5087 5.12405 20.8074 5.03838C21.0351 4.93842 21.2853 4.88487 21.5653 4.88487C22.2 4.88487 22.7302 5.0705 23.0662 5.44177C23.4209 5.81303 23.6113 6.36992 23.6113 7.01249V10.9429H22.1104V7.2017C22.1104 6.88041 22.0059 6.61267 21.8117 6.42704C21.6698 6.24141 21.4234 6.14145 21.1397 6.14145C20.841 6.14145 20.6095 6.24141 20.4154 6.42704C20.2212 6.61267 20.1167 6.88398 20.1167 7.2017V10.9465H18.6158V3H20.1204Z" fill="#C82128"/>
</svg>
