<svg width="360" height="252" viewBox="0 0 360 252" fill="none" xmlns="http://www.w3.org/2000/svg">
<rect width="360" height="252" fill="#3788EA"/>
<path d="M319.287 209.504C287.565 206.642 276.545 235.976 275 251H361V163C360.313 179.694 351.01 212.366 319.287 209.504Z" fill="#297BDE"/>
<circle cx="319.5" cy="202.5" r="4.5" fill="#297BDE"/>
<circle cx="327" cy="187" r="2" fill="#297BDE"/>
<circle cx="338" cy="197" r="3" fill="#297BDE"/>
<path d="M47.0714 57C26.1857 81 10.2143 62 1 52V4C1 1.79086 2.79086 0 5 0H77.2738C75.7381 9 64.9881 11 56.7976 21.5C48.2169 32.5003 56.7976 45.8235 47.0714 57Z" fill="#297BDE"/>
<circle cx="79.5" cy="12.5" r="4.5" fill="#297BDE"/>
<circle cx="90" cy="7" r="2" fill="#297BDE"/>
<path d="M247.121 61.8681C250.646 61.8681 253.504 59.0462 253.504 55.5652C253.504 52.0842 250.646 49.2623 247.121 49.2623C243.595 49.2623 240.738 52.0842 240.738 55.5652C240.738 59.0462 243.595 61.8681 247.121 61.8681Z" fill="#2267BC"/>
<path d="M239.707 49.6917C240.668 49.6917 241.447 48.9221 241.447 47.9728C241.447 47.0234 240.668 46.2538 239.707 46.2538C238.745 46.2538 237.966 47.0234 237.966 47.9728C237.966 48.9221 238.745 49.6917 239.707 49.6917Z" fill="#2267BC"/>
<path d="M236.949 57.2843C237.911 57.2843 238.69 56.5147 238.69 55.5653C238.69 54.6159 237.911 53.8463 236.949 53.8463C235.988 53.8463 235.209 54.6159 235.209 55.5653C235.209 56.5147 235.988 57.2843 236.949 57.2843Z" fill="#2267BC"/>
<path d="M239.707 64.5898C240.668 64.5898 241.447 63.8202 241.447 62.8708C241.447 61.9215 240.668 61.1519 239.707 61.1519C238.745 61.1519 237.966 61.9215 237.966 62.8708C237.966 63.8202 238.745 64.5898 239.707 64.5898Z" fill="#2267BC"/>
<path d="M247.248 67.3114C248.21 67.3114 248.989 66.5418 248.989 65.5924C248.989 64.643 248.21 63.8734 247.248 63.8734C246.287 63.8734 245.508 64.643 245.508 65.5924C245.508 66.5418 246.287 67.3114 247.248 67.3114Z" fill="#2267BC"/>
<path d="M254.213 64.3037C255.174 64.3037 255.953 63.5341 255.953 62.5847C255.953 61.6353 255.174 60.8657 254.213 60.8657C253.251 60.8657 252.472 61.6353 252.472 62.5847C252.472 63.5341 253.251 64.3037 254.213 64.3037Z" fill="#2267BC"/>
<path d="M247.248 46.6838C248.21 46.6838 248.989 45.9142 248.989 44.9648C248.989 44.0155 248.21 43.2458 247.248 43.2458C246.287 43.2458 245.508 44.0155 245.508 44.9648C245.508 45.9142 246.287 46.6838 247.248 46.6838Z" fill="#2267BC"/>
<path d="M254.648 49.8352C255.609 49.8352 256.389 49.0656 256.389 48.1162C256.389 47.1668 255.609 46.3972 254.648 46.3972C253.687 46.3972 252.907 47.1668 252.907 48.1162C252.907 49.0656 253.687 49.8352 254.648 49.8352Z" fill="#2267BC"/>
<path d="M257.259 57.2843C258.22 57.2843 259 56.5147 259 55.5653C259 54.6159 258.22 53.8463 257.259 53.8463C256.298 53.8463 255.518 54.6159 255.518 55.5653C255.518 56.5147 256.298 57.2843 257.259 57.2843Z" fill="#2267BC"/>
<path d="M241.736 54.7054H236.949V56.4244H241.736V54.7054Z" fill="#2267BC"/>
<path d="M257.259 54.7054H252.472V56.4244H257.259V54.7054Z" fill="#2267BC"/>
<path d="M251.424 52.3747L254.809 49.0321L253.578 47.8166L250.193 51.1592L251.424 52.3747Z" fill="#2267BC"/>
<path d="M240.552 63.2429L243.937 59.9003L242.706 58.6848L239.321 62.0274L240.552 63.2429Z" fill="#2267BC"/>
<path d="M243.778 51.2549L240.393 47.9124L239.162 49.1278L242.547 52.4704L243.778 51.2549Z" fill="#2267BC"/>
<path d="M254.856 62.0616L251.471 58.719L250.24 59.9345L253.625 63.2771L254.856 62.0616Z" fill="#2267BC"/>
<path d="M247.894 50.2524L247.894 45.5253L246.153 45.5253L246.153 50.2524L247.894 50.2524Z" fill="#2267BC"/>
<path d="M247.892 65.5789L247.892 60.8517L246.151 60.8517L246.151 65.5789L247.892 65.5789Z" fill="#2267BC"/>
<circle cx="245.817" cy="57.613" r="0.941634" fill="#2267BC"/>
<ellipse cx="180.5" cy="103" rx="48.5" ry="4" fill="#297BDE"/>
<path d="M123.12 35.3142C126.348 35.3142 128.966 32.7295 128.966 29.5411C128.966 26.3528 126.348 23.7681 123.12 23.7681C119.891 23.7681 117.273 26.3528 117.273 29.5411C117.273 32.7295 119.891 35.3142 123.12 35.3142Z" fill="#2267BC"/>
<path d="M113.803 31.1156C114.684 31.1156 115.398 30.4107 115.398 29.5411C115.398 28.6716 114.684 27.9667 113.803 27.9667C112.923 27.9667 112.209 28.6716 112.209 29.5411C112.209 30.4107 112.923 31.1156 113.803 31.1156Z" fill="#2267BC"/>
<path d="M116.329 37.807C117.209 37.807 117.923 37.1021 117.923 36.2326C117.923 35.363 117.209 34.6581 116.329 34.6581C115.448 34.6581 114.734 35.363 114.734 36.2326C114.734 37.1021 115.448 37.807 116.329 37.807Z" fill="#2267BC"/>
<path d="M123.237 40.2998C124.117 40.2998 124.831 39.5949 124.831 38.7254C124.831 37.8558 124.117 37.1509 123.237 37.1509C122.356 37.1509 121.642 37.8558 121.642 38.7254C121.642 39.5949 122.356 40.2998 123.237 40.2998Z" fill="#2267BC"/>
<path d="M129.615 37.5449C130.496 37.5449 131.21 36.84 131.21 35.9705C131.21 35.1009 130.496 34.396 129.615 34.396C128.735 34.396 128.021 35.1009 128.021 35.9705C128.021 36.84 128.735 37.5449 129.615 37.5449Z" fill="#2267BC"/>
<path d="M132.406 31.1156C133.286 31.1156 134 30.4107 134 29.5411C134 28.6716 133.286 27.9667 132.406 27.9667C131.525 27.9667 130.811 28.6716 130.811 29.5411C130.811 30.4107 131.525 31.1156 132.406 31.1156Z" fill="#2267BC"/>
<path d="M118.188 28.7535H113.803V30.328H118.188V28.7535Z" fill="#2267BC"/>
<path d="M132.406 28.7535H128.021V30.328H132.406V28.7535Z" fill="#2267BC"/>
<path d="M117.103 36.5733L120.204 33.5117L119.076 32.3984L115.976 35.46L117.103 36.5733Z" fill="#2267BC"/>
<path d="M130.204 35.4913L127.104 32.4297L125.976 33.543L129.077 36.6046L130.204 35.4913Z" fill="#2267BC"/>
<path d="M123.826 38.7129L123.826 34.3831L122.232 34.3831L122.232 38.7129L123.826 38.7129Z" fill="#2267BC"/>
<circle cx="121.063" cy="27.1045" r="0.862475" fill="#3788EA"/>
<circle cx="121.926" cy="31.4168" r="0.862475" fill="#2267BC"/>
<circle cx="124.513" cy="28.8294" r="1.72495" fill="#3788EA"/>
<path d="M112.905 90.9682C115.011 90.9682 116.718 89.2828 116.718 87.2038C116.718 85.1248 115.011 83.4395 112.905 83.4395C110.8 83.4395 109.093 85.1248 109.093 87.2038C109.093 89.2828 110.8 90.9682 112.905 90.9682Z" fill="#297BDE"/>
<path d="M108.477 83.696C109.051 83.696 109.517 83.2364 109.517 82.6693C109.517 82.1023 109.051 81.6427 108.477 81.6427C107.903 81.6427 107.437 82.1023 107.437 82.6693C107.437 83.2364 107.903 83.696 108.477 83.696Z" fill="#297BDE"/>
<path d="M106.831 88.2307C107.405 88.2307 107.87 87.771 107.87 87.204C107.87 86.637 107.405 86.1774 106.831 86.1774C106.256 86.1774 105.791 86.637 105.791 87.204C105.791 87.771 106.256 88.2307 106.831 88.2307Z" fill="#297BDE"/>
<path d="M108.477 92.5938C109.051 92.5938 109.517 92.1342 109.517 91.5672C109.517 91.0002 109.051 90.5405 108.477 90.5405C107.903 90.5405 107.437 91.0002 107.437 91.5672C107.437 92.1342 107.903 92.5938 108.477 92.5938Z" fill="#297BDE"/>
<path d="M112.981 94.2192C113.556 94.2192 114.021 93.7595 114.021 93.1925C114.021 92.6255 113.556 92.1659 112.981 92.1659C112.407 92.1659 111.942 92.6255 111.942 93.1925C111.942 93.7595 112.407 94.2192 112.981 94.2192Z" fill="#297BDE"/>
<path d="M117.141 92.4229C117.715 92.4229 118.181 91.9633 118.181 91.3963C118.181 90.8293 117.715 90.3696 117.141 90.3696C116.567 90.3696 116.101 90.8293 116.101 91.3963C116.101 91.9633 116.567 92.4229 117.141 92.4229Z" fill="#297BDE"/>
<path d="M112.981 81.8995C113.556 81.8995 114.021 81.4398 114.021 80.8728C114.021 80.3058 113.556 79.8462 112.981 79.8462C112.407 79.8462 111.942 80.3058 111.942 80.8728C111.942 81.4398 112.407 81.8995 112.981 81.8995Z" fill="#297BDE"/>
<path d="M117.401 83.7817C117.975 83.7817 118.44 83.322 118.44 82.755C118.44 82.188 117.975 81.7284 117.401 81.7284C116.827 81.7284 116.361 82.188 116.361 82.755C116.361 83.322 116.827 83.7817 117.401 83.7817Z" fill="#297BDE"/>
<path d="M118.96 88.2307C119.535 88.2307 120 87.771 120 87.204C120 86.637 119.535 86.1774 118.96 86.1774C118.386 86.1774 117.921 86.637 117.921 87.204C117.921 87.771 118.386 88.2307 118.96 88.2307Z" fill="#297BDE"/>
<path d="M109.689 86.6903H106.83V87.717H109.689V86.6903Z" fill="#297BDE"/>
<path d="M118.961 86.6903H116.101V87.717H118.961V86.6903Z" fill="#297BDE"/>
<path d="M115.476 85.2985L117.497 83.3021L116.762 82.5762L114.74 84.5725L115.476 85.2985Z" fill="#297BDE"/>
<path d="M108.982 91.7893L111.004 89.793L110.269 89.067L108.247 91.0634L108.982 91.7893Z" fill="#297BDE"/>
<path d="M110.909 84.6295L108.887 82.6332L108.152 83.3591L110.174 85.3555L110.909 84.6295Z" fill="#297BDE"/>
<path d="M117.525 91.0837L115.503 89.0874L114.768 89.8133L116.79 91.8097L117.525 91.0837Z" fill="#297BDE"/>
<path d="M113.367 84.0308L113.367 81.2075L112.328 81.2075L112.328 84.0308L113.367 84.0308Z" fill="#297BDE"/>
<path d="M113.366 93.1844L113.366 90.3611L112.326 90.3611L112.326 93.1844L113.366 93.1844Z" fill="#297BDE"/>
<circle cx="111.564" cy="85.615" r="0.562385" fill="#297BDE"/>
<circle cx="112.127" cy="88.4269" r="0.562385" fill="#297BDE"/>
<circle cx="113.814" cy="86.7398" r="1.12477" fill="#297BDE"/>
<path d="M36.9104 215.068C40.1392 215.068 42.7567 212.484 42.7567 209.295C42.7567 206.107 40.1392 203.522 36.9104 203.522C33.6817 203.522 31.0642 206.107 31.0642 209.295C31.0642 212.484 33.6817 215.068 36.9104 215.068Z" fill="#297BDE"/>
<path d="M30.1196 203.916C31.0002 203.916 31.714 203.211 31.714 202.341C31.714 201.472 31.0002 200.767 30.1196 200.767C29.239 200.767 28.5252 201.472 28.5252 202.341C28.5252 203.211 29.239 203.916 30.1196 203.916Z" fill="#297BDE"/>
<path d="M27.5944 210.87C28.475 210.87 29.1889 210.165 29.1889 209.296C29.1889 208.426 28.475 207.721 27.5944 207.721C26.7139 207.721 26 208.426 26 209.296C26 210.165 26.7139 210.87 27.5944 210.87Z" fill="#297BDE"/>
<path d="M30.1196 217.561C31.0002 217.561 31.714 216.856 31.714 215.987C31.714 215.117 31.0002 214.412 30.1196 214.412C29.239 214.412 28.5252 215.117 28.5252 215.987C28.5252 216.856 29.239 217.561 30.1196 217.561Z" fill="#297BDE"/>
<path d="M37.0271 220.054C37.9077 220.054 38.6216 219.349 38.6216 218.479C38.6216 217.61 37.9077 216.905 37.0271 216.905C36.1466 216.905 35.4327 217.61 35.4327 218.479C35.4327 219.349 36.1466 220.054 37.0271 220.054Z" fill="#297BDE"/>
<path d="M43.4068 217.299C44.2874 217.299 45.0012 216.594 45.0012 215.725C45.0012 214.855 44.2874 214.15 43.4068 214.15C42.5262 214.15 41.8124 214.855 41.8124 215.725C41.8124 216.594 42.5262 217.299 43.4068 217.299Z" fill="#297BDE"/>
<path d="M37.0271 201.161C37.9077 201.161 38.6216 200.456 38.6216 199.586C38.6216 198.717 37.9077 198.012 37.0271 198.012C36.1466 198.012 35.4327 198.717 35.4327 199.586C35.4327 200.456 36.1466 201.161 37.0271 201.161Z" fill="#297BDE"/>
<path d="M43.8045 204.047C44.6851 204.047 45.3989 203.342 45.3989 202.473C45.3989 201.603 44.6851 200.898 43.8045 200.898C42.9239 200.898 42.2101 201.603 42.2101 202.473C42.2101 203.342 42.9239 204.047 43.8045 204.047Z" fill="#297BDE"/>
<path d="M46.1962 210.87C47.0768 210.87 47.7907 210.165 47.7907 209.296C47.7907 208.426 47.0768 207.721 46.1962 207.721C45.3157 207.721 44.6018 208.426 44.6018 209.296C44.6018 210.165 45.3157 210.87 46.1962 210.87Z" fill="#297BDE"/>
<path d="M31.9783 208.508H27.5936V210.082H31.9783V208.508Z" fill="#297BDE"/>
<path d="M46.197 208.508H41.8124V210.082H46.197V208.508Z" fill="#297BDE"/>
<path d="M40.8519 206.373L43.9523 203.312L42.8249 202.198L39.7245 205.26L40.8519 206.373Z" fill="#297BDE"/>
<path d="M30.894 216.328L33.9944 213.266L32.867 212.153L29.7666 215.214L30.894 216.328Z" fill="#297BDE"/>
<path d="M33.8488 205.347L30.7484 202.286L29.621 203.399L32.7214 206.461L33.8488 205.347Z" fill="#297BDE"/>
<path d="M43.9951 215.246L40.8947 212.184L39.7672 213.297L42.8676 216.359L43.9951 215.246Z" fill="#297BDE"/>
<path d="M37.6189 204.429L37.6189 200.099L36.0245 200.099L36.0245 204.429L37.6189 204.429Z" fill="#297BDE"/>
<path d="M37.617 218.467L37.617 214.137L36.0225 214.137L36.0225 218.467L37.617 218.467Z" fill="#297BDE"/>
<circle cx="34.8535" cy="206.859" r="0.862463" fill="#297BDE"/>
<circle cx="35.7164" cy="211.171" r="0.862463" fill="#297BDE"/>
<circle cx="38.3039" cy="208.584" r="1.72493" fill="#297BDE"/>
<path d="M225.991 28.0656C226.633 28.0656 227.154 27.5518 227.154 26.9181C227.154 26.2843 226.633 25.7705 225.991 25.7705C225.35 25.7705 224.829 26.2843 224.829 26.9181C224.829 27.5518 225.35 28.0656 225.991 28.0656Z" fill="#297BDE"/>
<path d="M326.117 95.2527C328.815 95.2527 331.002 93.093 331.002 90.4287C331.002 87.7645 328.815 85.6047 326.117 85.6047C323.419 85.6047 321.232 87.7645 321.232 90.4287C321.232 93.093 323.419 95.2527 326.117 95.2527Z" fill="#297BDE"/>
<path d="M320.442 85.9335C321.178 85.9335 321.775 85.3445 321.775 84.6179C321.775 83.8913 321.178 83.3022 320.442 83.3022C319.706 83.3022 319.11 83.8913 319.11 84.6179C319.11 85.3445 319.706 85.9335 320.442 85.9335Z" fill="#297BDE"/>
<path d="M318.332 91.7446C319.068 91.7446 319.665 91.1555 319.665 90.4289C319.665 89.7023 319.068 89.1133 318.332 89.1133C317.597 89.1133 317 89.7023 317 90.4289C317 91.1555 317.597 91.7446 318.332 91.7446Z" fill="#297BDE"/>
<path d="M320.442 97.3359C321.178 97.3359 321.775 96.7468 321.775 96.0202C321.775 95.2936 321.178 94.7046 320.442 94.7046C319.706 94.7046 319.11 95.2936 319.11 96.0202C319.11 96.7468 319.706 97.3359 320.442 97.3359Z" fill="#297BDE"/>
<path d="M326.215 99.4189C326.95 99.4189 327.547 98.8298 327.547 98.1032C327.547 97.3766 326.95 96.7876 326.215 96.7876C325.479 96.7876 324.882 97.3766 324.882 98.1032C324.882 98.8298 325.479 99.4189 326.215 99.4189Z" fill="#297BDE"/>
<path d="M331.545 97.1169C332.281 97.1169 332.878 96.5278 332.878 95.8012C332.878 95.0746 332.281 94.4856 331.545 94.4856C330.809 94.4856 330.213 95.0746 330.213 95.8012C330.213 96.5278 330.809 97.1169 331.545 97.1169Z" fill="#297BDE"/>
<path d="M326.215 83.6313C326.95 83.6313 327.547 83.0422 327.547 82.3156C327.547 81.589 326.95 81 326.215 81C325.479 81 324.882 81.589 324.882 82.3156C324.882 83.0422 325.479 83.6313 326.215 83.6313Z" fill="#297BDE"/>
<path d="M331.878 86.0433C332.614 86.0433 333.21 85.4542 333.21 84.7276C333.21 84.001 332.614 83.412 331.878 83.412C331.142 83.412 330.546 84.001 330.546 84.7276C330.546 85.4542 331.142 86.0433 331.878 86.0433Z" fill="#297BDE"/>
<path d="M333.876 91.7446C334.612 91.7446 335.209 91.1555 335.209 90.4289C335.209 89.7023 334.612 89.1133 333.876 89.1133C333.141 89.1133 332.544 89.7023 332.544 90.4289C332.544 91.1555 333.141 91.7446 333.876 91.7446Z" fill="#297BDE"/>
<path d="M321.996 89.7706H318.332V91.0863H321.996V89.7706Z" fill="#297BDE"/>
<path d="M333.877 89.7706H330.213V91.0863H333.877V89.7706Z" fill="#297BDE"/>
<path d="M329.411 87.987L332.002 85.4287L331.059 84.4984L328.469 87.0567L329.411 87.987Z" fill="#297BDE"/>
<path d="M321.09 96.305L323.68 93.7467L322.738 92.8164L320.148 95.3747L321.09 96.305Z" fill="#297BDE"/>
<path d="M323.559 87.1298L320.968 84.5715L320.026 85.5018L322.617 88.0601L323.559 87.1298Z" fill="#297BDE"/>
<path d="M332.037 95.4008L329.446 92.8425L328.504 93.7728L331.095 96.3311L332.037 95.4008Z" fill="#297BDE"/>
<path d="M326.709 86.3625L326.709 82.7445L325.377 82.7445L325.377 86.3625L326.709 86.3625Z" fill="#297BDE"/>
<path d="M326.708 98.0927L326.708 94.4747L325.375 94.4747L325.375 98.0927L326.708 98.0927Z" fill="#297BDE"/>
<circle cx="324.398" cy="88.3927" r="0.720689" fill="#297BDE"/>
<circle cx="325.119" cy="91.9961" r="0.720689" fill="#297BDE"/>
<circle cx="327.281" cy="89.8341" r="1.44138" fill="#297BDE"/>
<path d="M207.3 54.2001C207.3 57.6 207.3 61.0001 207.3 64.4001C207.2 72.9001 203.6 80.7001 197.7 86.4001C197.6 86.5 197.5 86.5 197.5 86.6L197.4 86.7001C194.8 89.1001 191.8 91.1 188.5 92.6C188.2 92.8 187.8 92.9 187.5 93.1C185.6 93.9 183.6 94.5 181.5 95C181.3 95 181 95 180.7 95C175.7 94 171.2 91.8001 167.3 88.9001C167 88.7001 166.7 88.4001 166.4 88.2001C162.3 84.9001 159.1 80.6 157.2 75.8C156.4 73.8 155.8 71.7 155.4 69.6C155.1 67.7 154.9 65.8001 154.9 63.9001C154.8 56.6001 154.9 49.3 154.9 41.9C154.9 41.2 155.1 41 155.8 40.9C164.4 39.3 172.7 36.8 180.8 33.5C181.1 33.4 181.5 33.4 181.8 33.5C190 36.9 198.4 39.4 207.2 41C207.7 41.1 207.7 41.3 207.7 41.7C207.3 45.8 207.3 50 207.3 54.2001Z" fill="#0752AD"/>
<path fill-rule="evenodd" clip-rule="evenodd" d="M188.4 92.7C188.1 92.9 187.7 93 187.4 93.2C185.5 94 183.5 94.6 181.4 95.1C181.2 95.1 180.9 95.1 180.6 95.1C175.6 94.1 171.1 91.9 167.2 89C166.9 88.8 166.6 88.5 166.3 88.3L180.5 89.5L188.4 92.7Z" fill="white"/>
<path fill-rule="evenodd" clip-rule="evenodd" d="M197.4 86.3C194.5 89 191.2 91.2 187.4 92.8C185.9 93 184.4 93.1 182.9 93.1C177.1 93.1 171.1 91.4 166.6 88.5C162.1 85.1 159 81 156.5 74.5C158.4 73.3 161.149 72.2 163.649 71.3C163.849 71.2 163.74 71.0473 164 71C164.242 70.9561 164.5 71 164.5 71C164.5 70.9 164.9 71.1 165 71C165.3 70.5 165.3 70.4 165.5 70C165.7 69.6 165.9 69.3 166.1 69C166.2 68.9 166.2 68.8 166.3 68.7C166.4 68.6 166.5 68.4 166.6 68.3C166.8 68 167 67.7 167.3 67.4C167.3 67.3 167.4 67.3 167.4 67.2C167.4 67.1 167.5 67.1 167.5 67C167.6 66.8 167.8 66.7 167.9 66.5C168 66.4 168 66.4 168.1 66.3C168.2 66.2 168.3 66.1 168.4 66L169.3 66.6L169.1 69.7L180.3 87.2L180.4 87.4V86.7L180.8 77.1L180.9 74.7L181 71.8L184.3 71.2L186.9 75.3L187 75.4C187 75.4 189.3 76 191.4 77.1C191.6 77.2 191.8 77.3 192 77.4C192.9 77.9 193.7 78.4 194.2 79L195.1 81.2L197.4 86.3Z" fill="white"/>
<path fill-rule="evenodd" clip-rule="evenodd" d="M170 65L169.685 69C169.448 68.7101 165.823 65 170 65Z" fill="#1A1814"/>
<path d="M173.907 76.7375C173.289 76.3123 172.615 76.206 171.997 76.4186C170.2 77.0033 168.852 79.7143 168.346 80.99L165.369 70.8372V70.7841C165.425 70.7309 165.425 70.6777 165.482 70.6246L165.538 70.5183C165.762 70.093 165.987 69.7209 166.212 69.3488C166.38 69.0299 166.605 68.7641 166.773 68.4983C166.83 68.4452 166.886 68.392 166.886 68.3389L167.167 67.9136C167.391 67.5947 167.56 67.3821 167.728 67.1694L167.897 66.9568C167.897 66.9037 167.953 66.9037 167.953 66.8505L168.009 66.7973C168.122 66.691 168.178 66.5847 168.234 66.5316C168.346 66.4252 168.402 66.3721 168.402 66.3721C168.459 66.3189 168.459 66.1595 168.402 66.1063C168.402 66.1063 168.402 66.1063 168.402 66.0532C168.346 66 168.346 66 168.29 66C168.234 66 168.122 66 168.065 66.0532C168.065 66.0532 167.897 66.2126 167.672 66.4784L167.616 66.5847L167.56 66.6379L167.504 66.691L167.391 66.8505C167.223 67.0631 166.998 67.3289 166.773 67.6478L166.493 68.0731C166.436 68.1262 166.38 68.1794 166.38 68.2857C166.212 68.5515 165.987 68.8704 165.819 69.1362C165.594 69.5083 165.369 69.8804 165.088 70.3056L165.032 70.412C165.032 70.4651 164.976 70.5183 164.92 70.6246C164.527 70.7309 161.157 71.5814 157 74.2392C157.056 74.3455 157.056 74.3987 157.112 74.505C157.112 74.5581 157.169 74.6644 157.225 74.7176C160.37 72.804 163.179 71.6877 164.358 71.3156C164.583 71.2625 164.751 71.2093 164.864 71.1561H164.92L168.065 81.8405C168.065 81.9468 168.178 82 168.29 82C168.402 82 168.459 81.9468 168.515 81.8405C168.515 81.7874 170.087 77.588 172.11 76.9502C172.615 76.7907 173.121 76.8439 173.626 77.2159C173.738 77.2691 173.851 77.2691 173.963 77.1628C174.019 76.9502 174.019 76.7907 173.907 76.7375Z" fill="black"/>
<path fill-rule="evenodd" clip-rule="evenodd" d="M191 55.1L190.8 58.8L189.8 60.4C189.8 60.4 189.3 68.1 185.1 70.7L181.6 74.6L182.3 77.4V77.5L183 80.9L180.4 87.7L169.1 70.1L169.3 66.1L169.4 64.2L169.5 62.3V62.1C169.5 62.1 166.8 62.3 167.2 56.5C167.2 56.5 167.3 54.4 168.1 53.6C168.2 53.5 168.3 53.5 168.4 53.5C170.3 53.5 171.1 57.3 171.1 57.3H172.1V57.1H172.3V57L172.7 54.9C173 54.8 173.4 54.6 173.7 54.4C174.6 53.8 176 52.3 177.8 48.4C178.7 50.5 189 50.4 189 50.4C189.5 50.6 189.9 51.2 190.1 51.8C190.5 52.8 190.6 54.1 190.6 55.3C190.9 55.2 191 55.1 191 55.1Z" fill="#E8AB92"/>
<path fill-rule="evenodd" clip-rule="evenodd" d="M190.3 53.4C190.3 52.1 189.1 51.1 187.9 50.7C186.7 50.3 185.4 50.5 184.1 50.6C182.5 50.8 180.9 50.9 179.3 51.1C178.8 51.1 178.3 51.2 178 50.8C177.7 52.3 176.5 53.4 175.4 54.4C174.8 54.9 174.1 55.5 173.3 55.6C173 55.6 173 57.3 173 57.6C172.8 57.6 172.5 57.3 172.4 57L172.8 54.9C173.1 54.8 173.5 54.6 173.8 54.4C174.7 53.8 176.1 52.3 177.9 48.4C178.8 50.5 189.1 50.4 189.1 50.4C189.6 50.6 190 51.2 190.2 51.8C190.4 52.2 190.3 52.8 190.3 53.4Z" fill="#DE9681"/>
<path fill-rule="evenodd" clip-rule="evenodd" d="M191 55.0999C190.9 55.0999 190.8 55.1999 190.7 55.1999C190.6 53.0999 190.3 50.8999 189.1 50.2999C189.1 50.2999 178.8 50.3999 177.9 48.2999C176.1 52.1999 174.7 53.6999 173.8 54.2999C173.5 54.5999 173.1 54.7999 172.8 54.7999L172.4 56.9999H172.2V57.1999H171.2C171.2 57.1999 170.4 53.3999 168.5 53.3999C168.4 53.3999 168.3 53.3999 168.2 53.4999C167.4 54.2999 167.3 56.3999 167.3 56.3999C166.9 62.0999 169.6 61.9999 169.6 61.9999V62.1999L169.5 64.0999C169 63.8999 168.2 63.2999 167.8 62.4C166.2 59.2999 165.3 55.1999 165.5 51.7999C165.8 48.1999 167.8 44.4999 171.2 43.3999C171.8 40.2999 175.4 38.2999 178.6 38.3999C181.8 38.4999 184.9 39.9999 187.7 41.4999C188.6 41.9999 189.5 42.3999 190.3 42.8999C191.5 43.4999 192.7 44.0999 193.3 45.1999C193.9 46.0999 194.2 47.1999 194.3 48.2999C194.6 50.8999 193.5 53.9999 191 55.0999Z" fill="#1A1814"/>
<path d="M187.8 58.9C187.5 58.9 187.3 59.2 187.3 59.7C187.3 60.1 187.5 60.5 187.8 60.5C188.1 60.5 188.3 60.2 188.3 59.7C188.3 59.2 188.1 58.9 187.8 58.9ZM180 57.7C179.7 57.7 179.5 58 179.5 58.5C179.5 58.9 179.7 59.2999 180 59.2999C180.3 59.2999 180.5 59 180.5 58.5C180.5 58.1 180.3 57.7 180 57.7Z" fill="#0B0B0B"/>
<path fill-rule="evenodd" clip-rule="evenodd" d="M181.3 62.9H181.6C181.8 63 181.9 63.1 182 63.2C182.5 63.7 183.1 64 183.8 64C184.5 64.1 185.3 63.7 185.6 63.2C186.4 63.7 186.9 64.6 187 65.4C187.1 66.2 186.9 67.1 186.6 67.9C183.7 66.3 179.1 66.3 175.7 67.1C175.8 67 177 64.7 177.9 63.9C178.9 63.4 180.1 62.9 181.3 62.9Z" fill="#1A1814"/>
<path d="M190.4 56.3001C190.1 55.5001 189.3 55.0001 188.5 55.0001C187.9 55.0001 187.3 55.3001 186.5 55.8001C186.4 55.9001 186.4 56.0001 186.5 56.1001C186.6 56.2001 186.7 56.2001 186.8 56.1001C187.5 55.6001 188 55.4001 188.5 55.4001C189.2 55.4001 189.8 55.8001 190 56.4001C190 56.5001 190.1 56.6001 190.2 56.6001H190.3C190.4 56.6001 190.5 56.4001 190.4 56.3001ZM182.3 55.3001C182 54.7001 181.4 54.4001 181 54.3001C180.5 54.2001 180 54.2001 179.4 54.4001C178.7 54.5001 178.1 54.7001 177.8 55.2001C177.7 55.3001 177.8 55.5001 177.9 55.5001C178 55.6001 178.2 55.5001 178.2 55.4001C178.4 55.1001 178.9 54.8001 179.5 54.8001C180 54.7001 180.5 54.6001 180.9 54.7001C181.2 54.8001 181.7 55.0001 181.9 55.4001C181.9 55.5001 182 55.5001 182.1 55.5001H182.2C182.2 55.6001 182.3 55.4001 182.3 55.3001ZM194.7 79.7001C194.4 79.0001 193.5 78.3001 192.3 77.6001C192.1 77.5001 191.9 77.4001 191.7 77.3001C189.7 76.3001 187.6 75.6001 187.2 75.5001H187.1C186 73.5001 185 71.9001 184.9 71.8001C184.8 71.7001 184.7 71.7001 184.6 71.7001C184.5 71.7001 184.5 71.8001 184.5 71.9001C184.5 71.9001 184.5 72.0001 184.5 72.1001C184.5 72.2001 188.9 79.1001 189.7 82.5001C188.7 81.3001 186.8 79.1001 185 79.3001C184.2 79.4001 183.6 79.9001 183.2 80.9001C183.2 81.0001 183.1 81.1001 183.1 81.2001L180.6 87.0001L180.4 87.4001V87.5001C180.4 87.6001 180.4 87.6001 180.5 87.7001C180.6 87.7001 180.7 87.7001 180.8 87.6001L183.5 81C184.2 79.9999 184.3 79.6 185 79.5C187 79.3 189.6 83.1001 189.6 83.2001C189.7 83.3001 189.8 83.3001 189.9 83.3001C190 83.3001 190.1 83.2001 190.1 83.1001C190.1 81.5001 188.7 78.5001 187.3 75.9001C188.1 76.1001 189.8 76.8001 191.5 77.6001C191.7 77.7001 191.9 77.8001 192.1 77.9001C193.3 78.6001 194 79.2001 194.3 79.8001L197.3 86.6001L197.4 86.5001C197.5 86.4001 197.6 86.3001 197.6 86.3001L194.7 79.7001Z" fill="black"/>
<path fill-rule="evenodd" clip-rule="evenodd" d="M182.4 77.5C181.4 77.5 173.6 77.6 172.2 69.7C172.2 69.7 177.5 77.6 181.7 74.7L182.4 77.5Z" fill="#DE9681"/>
<path fill-rule="evenodd" clip-rule="evenodd" d="M172.5 57.1C172.5 57.1 179.7 63.5 189.6 62.3C189.6 62.3 189.4 67.8 185.3 70.8L181.9 74.7C181.9 74.7 177.3 78 172.4 69.7L169.8 62.2L171.4 57.3L172.5 57.1Z" fill="#67CFF0"/>
<path d="M211.6 52.6C211.6 56.5 211.6 60.5 211.6 64.4C211.5 81.5 198.8 96.4 181.4 100C181.1 100.1 180.8 100.1 180.5 100C165.3 96.8 153.4 85 150.9 70.3C150.5 68.1 150.3 65.9 150.3 63.7C150.2 55.2 150.3 46.7 150.3 38.1C150.3 37.3 150.5 37.1 151.3 36.9C161.3 35.1 171 32.2 180.3 28.3C180.6 28.2 181.1 28.1 181.4 28.3C191 32.3 200.8 35.2 211 37.1C211.6 37.2 211.6 37.5 211.6 37.9C211.6 42.8 211.6 47.7 211.6 52.6Z" stroke="#67CFF0" stroke-width="1.6" stroke-miterlimit="10"/>
<path d="M216 100.4H218.5V102.3H210.6V100.4H213.2V85.3999H216V100.4Z" fill="#EAEAEA"/>
<path d="M216 100.4H218.5V102.3H210.6V100.4H213.2V85.3999H216V100.4Z" stroke="#1A1814" stroke-width="0.4" stroke-miterlimit="10"/>
<path d="M222.5 83V85.3H206.7V83H210.6V56H218.5V83H222.5Z" fill="white"/>
<path d="M222.5 83V85.3H206.7V83H210.6V56H218.5V83H222.5Z" stroke="#1A1814" stroke-width="0.4" stroke-miterlimit="10"/>
<path d="M217.4 54H211.8V56H217.4V54Z" fill="#67CFF0"/>
<path d="M216.9 54.0001H212.3L213 48.6001H216.2L216.9 54.0001Z" fill="#67CFF0"/>
<path d="M217.4 54H211.8V56H217.4V54Z" stroke="#1A1814" stroke-width="0.4" stroke-miterlimit="10"/>
<path d="M216.9 54.0001H212.3L213 48.6001H216.2L216.9 54.0001Z" stroke="#1A1814" stroke-width="0.4" stroke-miterlimit="10"/>
<path d="M214.5 31V31V49V49V31Z" stroke="#1A1814" stroke-width="0.4" stroke-miterlimit="10"/>
<path d="M213.1 58H211.8V83H213.1V58Z" fill="#67CFF0"/>
<path d="M216.1 60.5H218.5" stroke="#1A1814" stroke-width="0.4" stroke-miterlimit="10"/>
<path d="M216.1 63.8999H218.5" stroke="#1A1814" stroke-width="0.4" stroke-miterlimit="10"/>
<path d="M216.1 67.3H218.5" stroke="#1A1814" stroke-width="0.4" stroke-miterlimit="10"/>
<path d="M212.7 75.2001H199.9C199.4 75.2001 199.1 74.8001 199.1 74.4001V72.4001C199.1 71.9001 199.5 71.6001 199.9 71.6001H212.7C213.2 71.6001 213.5 72.0001 213.5 72.4001V74.4001C213.5 74.8001 213.1 75.2001 212.7 75.2001Z" fill="#FF9700"/>
<path d="M201.6 75.2001H201.3H199.9C199.4 75.2001 199.1 74.8001 199.1 74.4001V72.4001C199.1 71.9001 199.5 71.6001 199.9 71.6001H212.7C213.2 71.6001 213.5 72.0001 213.5 72.4001V74.4001C213.5 74.9001 213.1 75.2001 212.7 75.2001H211.3H210.8" stroke="black" stroke-width="0.4" stroke-miterlimit="10"/>
<path d="M211.3 77.6659L201.3 77.5846C200.7 77.5846 200.2 76.9001 200.2 76.3001C200.2 75.7001 200.7 75.2001 201.3 75.2001H211.3C211.9 75.2001 212.4 75.7001 212.4 76.3001C212.4 76.9001 211.9 77.6659 211.3 77.6659Z" fill="#EAEAEA"/>
<path d="M210.8 77.4001H211.3C211.9 77.4001 212.4 76.9001 212.4 76.3001C212.4 75.7001 211.9 75.2001 211.3 75.2001H210.8" stroke="black" stroke-width="0.4" stroke-miterlimit="10"/>
<path d="M201.7 75.2001H201.2C200.6 75.2001 200.1 75.7001 200.1 76.3001C200.1 76.9001 200.6 77.4001 201.2 77.4001H201.7" stroke="black" stroke-width="0.4" stroke-miterlimit="10"/>
<path d="M213.5 80.6001V101.2C213.5 101.8 213 102.3 212.4 102.3H200.2C199.6 102.3 199.1 101.8 199.1 101.2V80.6001C199.1 80.0001 199.6 79.5001 200.2 79.5001C200.6 79.5001 200.9 79.2001 200.9 78.8001V77.6001H211.6V78.8001C211.6 79.2001 211.9 79.5001 212.3 79.5001C213 79.5001 213.5 80.0001 213.5 80.6001Z" fill="#67CFF0"/>
<path d="M213.5 80.6001V101.1H203.2C202.6 101.1 202.1 100.6 202.1 100V79.4001C202.1 78.8001 202.6 78.3001 203.2 78.3001C203.6 78.3001 203.9 78.0001 203.9 77.6001H211.6V78.8001C211.6 79.2001 211.9 79.5001 212.3 79.5001C213 79.5001 213.5 80.0001 213.5 80.6001Z" fill="white"/>
<path d="M213.5 83.5001H199.1V96.0001H213.5V83.5001Z" fill="#FF9700"/>
<path d="M210.8 77.5001H211.7V78.7001C211.7 79.1001 212 79.4001 212.4 79.4001C213 79.4001 213.5 79.9001 213.5 80.5001V101.1C213.5 101.7 213 102.2 212.4 102.2H200.2C199.6 102.2 199.1 101.7 199.1 101.1V80.6001C199.1 80.0001 199.6 79.5001 200.2 79.5001C200.6 79.5001 200.9 79.2001 200.9 78.8001V77.6001H201.6" stroke="black" stroke-width="0.4" stroke-miterlimit="10"/>
<path d="M211.9 86.9001H199.6V88.0001H211.9V86.9001Z" fill="white"/>
</svg>
