<svg width="20" height="34" viewBox="0 0 20 34" fill="none" xmlns="http://www.w3.org/2000/svg">
<g clip-path="url(#clip0)">
<path d="M6.02596 20.7742C6.02596 18.9188 6.02596 17.0634 6.02596 15.208C6.02596 14.3516 6.61271 13.7332 7.48491 13.6222C8.18268 13.527 8.92801 14.0662 9.13417 14.7957C9.18174 14.9701 9.18174 15.1446 9.18174 15.319C9.18174 18.1893 9.18174 21.0597 9.18174 23.93C9.18174 24.1044 9.15003 24.2789 9.43547 24.2789C9.64163 24.2789 9.72092 24.2313 9.72092 24.0093C9.70506 22.2332 9.70506 20.4571 9.70506 18.6809C9.70506 17.7929 10.2601 17.1585 11.0847 17.0475C11.8459 16.9524 12.5595 17.444 12.7974 18.1893C12.845 18.3479 12.845 18.4906 12.845 18.6334C12.845 20.3778 12.8608 22.138 12.845 23.8824C12.845 24.1837 12.9401 24.2472 13.2256 24.2472C13.5428 24.2472 13.511 24.0727 13.511 23.8666C13.511 22.6138 13.511 21.3451 13.511 20.0923C13.511 19.4897 13.7489 19.0298 14.3039 18.7602C14.8114 18.5065 15.3189 18.5541 15.7946 18.8871C16.1911 19.1725 16.3497 19.5848 16.3497 20.0765C16.3497 21.361 16.3497 22.6455 16.3497 23.93C16.3497 24.041 16.2704 24.2154 16.4765 24.2472C16.651 24.2789 16.7937 24.2789 16.7937 24.0251C16.7778 23.4384 16.7778 22.8516 16.7937 22.2807C16.8254 21.1865 17.8562 20.5522 18.776 21.0279C19.1883 21.25 19.4896 21.5988 19.4896 22.0746C19.5054 23.8031 19.6164 25.5317 19.442 27.2602C19.2676 29.0046 18.3954 30.4477 17.095 31.6371C15.5567 33.0485 13.7172 33.7779 11.6398 33.9365C9.9588 34.0634 8.30954 34.0792 6.67615 33.6194C3.07633 32.5727 1.03062 30.1147 0.174279 26.5466C0.094988 26.2136 0.0315552 25.8806 0.0315552 25.5475C0.0474134 24.7863 0.602451 24.1837 1.34779 24.1362C2.06141 24.0886 2.72745 24.6278 2.8226 25.3572C2.93361 26.2136 3.18734 27.0065 3.58379 27.7677C3.77409 28.1483 4.09126 28.402 4.50357 28.513C5.01103 28.6399 5.45506 28.4337 5.69294 27.958C5.97838 27.3871 6.02596 26.7686 6.04182 26.1501C6.04182 24.3423 6.02596 22.5662 6.02596 20.7742Z" fill="#FE7B01"/>
<path d="M0.015538 13.4794C0.015538 10.7835 0.0472544 8.08764 -0.000320258 5.39174C-0.0478949 2.31525 2.41013 -0.031765 5.39147 -4.85564e-05C8.35696 0.0316679 11.3224 -4.85569e-05 14.2879 0.0158097C16.6508 0.0158097 18.7124 1.61749 19.2991 3.88521C19.426 4.36096 19.4736 4.85256 19.4736 5.34417C19.4736 9.54659 19.4736 13.749 19.4736 17.9514C19.4736 18.6968 19.1564 19.0298 18.3952 19.0615C17.4913 19.1091 17.4913 19.1091 17.4913 18.1893C17.4913 13.8759 17.4754 9.57831 17.4754 5.26488C17.4754 3.9645 16.9045 3.01301 15.7786 2.37868C15.2711 2.09324 14.7002 1.99809 14.1293 1.99809C11.2114 1.99809 8.29352 1.98223 5.37561 1.99809C3.64707 1.99809 2.37841 3.02887 2.07711 4.64641C1.93438 5.37588 2.01367 6.13708 2.01367 6.88241C1.99781 12.0839 1.98196 17.3013 1.98196 22.5027C1.98196 22.8041 1.93438 22.9626 1.60136 22.9468C1.36349 22.9309 1.10975 22.9944 0.871881 22.9468C0.253411 22.8516 0.0313962 22.582 0.0313962 21.9636C0.015538 19.125 0.015538 16.3022 0.015538 13.4794Z" fill="#0158A6"/>
<path d="M5.6774 11.18C5.6774 10.0858 6.51788 9.2453 7.59624 9.2453C8.65874 9.2453 9.53094 10.1175 9.53094 11.18C9.53094 12.2266 8.65874 13.0988 7.6121 13.0988C6.5496 13.1147 5.6774 12.2584 5.6774 11.18Z" fill="#FE7B01"/>
<path d="M9.70555 4.7575C8.89678 4.7575 8.08801 4.7575 7.2951 4.7575C6.8035 4.7575 6.53391 4.53548 6.51805 4.13903C6.51805 3.74257 6.78764 3.5047 7.26339 3.5047C8.91264 3.5047 10.5778 3.5047 12.227 3.5047C12.6393 3.5047 12.8772 3.695 12.9406 4.04388C12.9882 4.32933 12.8138 4.63063 12.5283 4.72578C12.4173 4.7575 12.3063 4.7575 12.1794 4.7575C11.3707 4.77336 10.5302 4.77336 9.70555 4.7575C9.70555 4.77336 9.70555 4.7575 9.70555 4.7575Z" fill="#0158A6"/>
</g>
<defs>
<clipPath id="clip0">
<rect width="19.5056" height="34" fill="white"/>
</clipPath>
</defs>
</svg>
